<svg width="24" height="24" viewBox="0 0 24 24" fill="none" xmlns="http://www.w3.org/2000/svg">
<path d="M6.10265 23.544L6.10293 23.544C7.63689 23.6149 8.09354 23.6285 11.9996 23.6285C15.907 23.6285 16.3638 23.6142 17.898 23.544L17.8981 23.544C19.2847 23.4809 20.0202 23.2519 20.4983 23.0654L20.4985 23.0653C21.1348 22.8176 21.5789 22.529 22.0539 22.0539C22.5291 21.5788 22.8177 21.1353 23.0653 20.4992C23.2509 20.0201 23.481 19.2843 23.544 17.8988L23.544 17.8987C23.6142 16.3631 23.6285 15.9063 23.6285 12.0004C23.6285 8.093 23.6142 7.63761 23.544 6.10203L23.544 6.10194C23.4809 4.7153 23.2519 3.97985 23.0654 3.50172L23.0653 3.50151C22.8175 2.86505 22.5296 2.42108 22.0541 1.94624C21.5779 1.47064 21.1345 1.18099 20.4994 0.935019C20.0185 0.749295 19.2841 0.519044 17.8982 0.456007L6.10265 23.544ZM6.10265 23.544C4.71602 23.4809 3.98056 23.2519 3.50243 23.0654L3.50222 23.0653M6.10265 23.544L3.50222 23.0653M3.50222 23.0653C2.86612 22.8177 2.42259 22.5291 1.94658 22.0538C1.47065 21.5785 1.18168 21.1353 0.93561 20.4998L0.935285 20.499M3.50222 23.0653L0.935285 20.499M0.935285 20.499C0.748794 20.0209 0.519776 19.2854 0.456715 17.8988L0.456702 17.8985M0.935285 20.499L0.456702 17.8985M0.456702 17.8985C0.385781 16.3645 0.371504 15.9084 0.371504 12.0011M0.456702 17.8985L0.371504 12.0011M3.50172 0.934571L3.50076 0.934944C2.865 1.18089 2.42171 1.47045 1.94632 1.94579C1.47152 2.42263 1.18234 2.86623 0.934839 3.50174C0.749152 3.98263 0.51904 4.71702 0.456013 6.1024L3.50172 0.934571ZM3.50172 0.934571C3.97985 0.748081 4.7153 0.519062 6.10194 0.456002L6.10204 0.455997M3.50172 0.934571L6.10204 0.455997M6.10204 0.455997C7.6369 0.38578 8.09371 0.371504 11.9996 0.371504M6.10204 0.455997L11.9996 0.371504M0.371504 12.0011C0.371504 8.09413 0.387197 7.63836 0.456008 6.10252L0.371504 12.0011ZM11.9996 0.371504C15.9065 0.371504 16.3623 0.387196 17.8981 0.456002L11.9996 0.371504Z" fill="white" stroke="#FAFAFA" stroke-width="0.743008"/>
<path fill-rule="evenodd" clip-rule="evenodd" d="M12.0087 2C6.19766 2 1.5 6.6979 1.5 12.5098C1.5 17.1556 4.50995 21.0882 8.68555 22.4801C9.2076 22.5847 9.39883 22.2539 9.39883 21.9757C9.39883 21.732 9.38162 20.8969 9.38162 20.0267C6.45836 20.6532 5.84962 18.7738 5.84962 18.7738C5.37983 17.5558 4.68375 17.2428 4.68375 17.2428C3.72697 16.5989 4.75345 16.5989 4.75345 16.5989C5.81477 16.6685 6.37167 17.6777 6.37167 17.6777C7.31103 19.2784 8.82472 18.8262 9.43368 18.5477C9.52058 17.8691 9.79914 17.3993 10.0949 17.1383C7.7634 16.8947 5.31035 15.9899 5.31035 11.9529C5.31035 10.8045 5.72765 9.86492 6.38888 9.13418C6.28456 8.87324 5.9191 7.79422 6.49342 6.35004C6.49342 6.35004 7.38073 6.07158 9.38141 7.42885C10.238 7.19879 11.1213 7.08176 12.0087 7.08078C12.896 7.08078 13.8005 7.20271 14.6358 7.42885C16.6367 6.07158 17.524 6.35004 17.524 6.35004C18.0983 7.79422 17.7326 8.87324 17.6283 9.13418C18.3069 9.86492 18.707 10.8045 18.707 11.9529C18.707 15.9899 16.254 16.8772 13.905 17.1383C14.2879 17.4689 14.6183 18.0952 14.6183 19.0871C14.6183 20.4965 14.6011 21.6276 14.6011 21.9755C14.6011 22.2539 14.7926 22.5847 15.3144 22.4803C19.49 21.088 22.5 17.1556 22.5 12.5098C22.5172 6.6979 17.8023 2 12.0087 2Z" fill="#24292F"/>
</svg>
